<svg width="387" height="410" viewBox="0 0 387 410" fill="none" xmlns="http://www.w3.org/2000/svg">
<g clip-path="url(#clip0_143_522)">
<path d="M378.023 249.66C373.503 231.138 368.793 214.757 370.085 195.274C371.833 168.908 383.519 139.927 379.787 112.505C376.29 86.785 360.178 75.9644 338.79 64.9391C308.614 49.3776 284.202 2.4098 249.191 0.110233C215.849 -2.07908 189.468 30.3669 156.362 28.335C139.463 27.3113 121.713 20.0346 106.294 27.0435C87.2845 35.6905 83.0951 60.4975 70.2749 76.9882C60.6991 89.305 46.3512 96.7393 33.531 105.623C20.6951 114.49 8.28435 126.492 6.3314 141.975C3.76421 162.371 18.9784 178.815 20.4588 198.377C22.1283 220.412 4.80368 232.587 0.72453 252.716C-0.881933 260.591 0.535534 263.442 1.60651 270.136C1.84275 271.601 1.26002 273.648 1.60651 274.861C2.1105 276.609 2.83498 277.161 3.18147 278.011C13.0092 301.81 42.5083 307.48 48.1467 334.65C48.6349 336.981 47.2647 339.469 47.7057 341.375C50.2099 352.29 56.62 372.215 64.5893 379.617C65.9753 380.893 77.5197 389.572 78.3387 389.761C99.4905 394.864 126.674 383.397 147.574 394.281C154.063 397.667 159.67 403.952 166.663 406.692C192.413 416.788 205.234 400.691 229.126 399.227C243.552 398.345 255.617 403.18 266.956 404.33C295.699 407.275 315.906 402.582 328.38 374.057C332.16 365.426 332.396 355.33 335.499 347.313C341.09 332.886 354.855 324.633 365.423 314.237C389.929 290.139 385.409 279.917 378.023 249.66ZM292.471 330.413C286.832 336.477 279.084 337.359 275.776 337.737C274.815 337.847 273.839 337.894 272.847 337.894C249.506 337.894 217.298 308.898 213.565 305.464C211.959 303.984 211.864 301.495 213.329 299.904C214.809 298.298 217.298 298.203 218.888 299.668C231.142 310.945 258.593 331.752 274.878 329.909C277.745 329.594 283.052 328.98 286.706 325.042C286.848 324.885 290.691 320.522 290.691 313.056C290.691 301.668 273.335 287.839 248.529 279.429C246.466 278.736 245.364 276.499 246.057 274.436C246.75 272.373 248.986 271.27 251.049 271.963C279.887 281.744 298.534 297.873 298.566 313.056C298.582 323.735 292.723 330.145 292.471 330.413Z" fill="url(#paint0_radial_143_522)"/>
<path d="M378.007 314.237C375.629 313.591 375.408 314.867 374.07 315.781C367.549 320.285 359.769 329.058 352.871 333.925C360.541 341.06 365.801 348.778 377.283 348.605C396.985 348.305 381.173 323.593 378.007 314.237Z" fill="url(#paint1_radial_143_522)"/>
<path d="M271.713 219.309C275.162 225.751 281.808 229.862 289.084 230.004C300.125 230.224 306.126 221.168 306.456 220.648C302.928 222.097 296.125 224.318 287.478 223.672C280.391 223.152 274.941 220.916 271.728 219.309H271.713Z" fill="#4B5975"/>
<path d="M271.728 215.372C272.339 215.372 272.943 215.514 273.489 215.787C276.415 217.25 281.354 219.274 287.765 219.745L287.772 219.746C295.597 220.331 301.764 218.318 304.961 217.005C306.548 216.353 308.375 216.805 309.477 218.12C310.578 219.436 310.699 221.315 309.778 222.762C309.359 223.421 302.303 234.205 289.007 233.94V233.938C280.288 233.768 272.354 228.848 268.241 221.167C267.588 219.947 267.624 218.474 268.335 217.287C269.046 216.099 270.329 215.372 271.713 215.372H271.728Z" fill="#4B5975"/>
<path d="M337.942 178.766C339.102 178.463 340.411 178.503 341.639 178.697C342.744 178.871 343.915 179.191 345.071 179.632L345.566 179.829L345.57 179.83C349.615 181.509 351.355 183.839 351.612 184.198C352.37 185.26 352.124 186.736 351.063 187.495C350.001 188.253 348.525 188.007 347.767 186.946C347.766 186.944 347.765 186.943 347.762 186.939C347.759 186.935 347.75 186.923 347.738 186.907C347.712 186.874 347.666 186.818 347.599 186.743C347.465 186.592 347.246 186.362 346.93 186.09C346.3 185.548 345.276 184.824 343.765 184.195C342.749 183.777 341.757 183.498 340.902 183.363C340.013 183.223 339.424 183.262 339.135 183.337C337.873 183.666 336.582 182.911 336.253 181.648C335.924 180.386 336.679 179.095 337.942 178.766Z" fill="#4B5975"/>
<path d="M241.05 181.358C242.279 181.164 243.587 181.125 244.748 181.428C246.01 181.757 246.766 183.048 246.436 184.31C246.107 185.572 244.816 186.328 243.554 185.999C243.265 185.924 242.676 185.885 241.787 186.025C240.932 186.16 239.941 186.44 238.925 186.859L238.923 186.857C237.412 187.485 236.39 188.21 235.759 188.752C235.443 189.024 235.224 189.253 235.09 189.404C235.024 189.48 234.978 189.536 234.952 189.569C234.939 189.585 234.931 189.596 234.927 189.601C234.924 189.605 234.924 189.606 234.923 189.607C234.164 190.669 232.688 190.915 231.627 190.156C230.565 189.398 230.319 187.922 231.077 186.86C231.334 186.5 233.074 184.171 237.119 182.492L237.124 182.49C238.438 181.949 239.787 181.558 241.05 181.358Z" fill="#4B5975"/>
<path d="M231.333 199.056C233.159 197.875 235.596 198.397 236.778 200.222C237.19 200.859 239.523 204.4 244.134 205.301C248.815 206.217 252.364 203.747 252.903 203.354C254.66 202.073 257.123 202.458 258.404 204.215C259.686 205.972 259.3 208.436 257.543 209.717C256.57 210.427 250.668 214.603 242.624 213.03C234.669 211.475 230.796 205.473 230.167 204.501C228.986 202.676 229.508 200.238 231.333 199.056Z" fill="#4B5975"/>
<path d="M347.61 199.018C348.891 197.261 351.355 196.876 353.112 198.157C354.868 199.438 355.254 201.901 353.973 203.657C353.264 204.63 348.922 210.42 340.76 211.376H340.756C332.693 212.312 327.181 207.796 326.259 207.031C324.585 205.642 324.355 203.159 325.744 201.486C327.132 199.812 329.615 199.58 331.288 200.969C331.829 201.418 334.95 203.934 339.412 203.596L339.849 203.553C344.597 202.995 347.216 199.559 347.61 199.018Z" fill="#4B5975"/>
</g>
<defs>
<radialGradient id="paint0_radial_143_522" cx="0" cy="0" r="1" gradientUnits="userSpaceOnUse" gradientTransform="translate(191.941 204.992) scale(198.571 198.582)">
<stop stop-color="#B2D4D8"/>
<stop offset="0.26" stop-color="#B2D4D8"/>
<stop offset="0.44" stop-color="#A7C9D3"/>
<stop offset="0.71" stop-color="#9ABAD1"/>
<stop offset="1" stop-color="#89A7CC"/>
</radialGradient>
<radialGradient id="paint1_radial_143_522" cx="0" cy="0" r="1" gradientUnits="userSpaceOnUse" gradientTransform="translate(369.927 331.326) scale(17.1671 17.168)">
<stop stop-color="#B2D4D8"/>
<stop offset="0.26" stop-color="#B2D4D8"/>
<stop offset="0.44" stop-color="#A7C9D3"/>
<stop offset="0.71" stop-color="#9ABAD1"/>
<stop offset="1" stop-color="#89A7CC"/>
</radialGradient>
<clipPath id="clip0_143_522">
<rect width="387" height="410" fill="white"/>
</clipPath>
</defs>
</svg>
