<svg width="415" height="563" viewBox="0 0 415 563" fill="none" xmlns="http://www.w3.org/2000/svg">
<g clip-path="url(#clip0_131_522)">
<path d="M268.141 0H140.373C129.18 0 120.107 9.06839 120.107 20.2548V165.473C120.107 176.659 129.18 185.728 140.373 185.728H268.141C279.333 185.728 288.407 176.659 288.407 165.473V20.2548C288.407 9.06839 279.333 0 268.141 0Z" fill="#C6C8C7"/>
<path d="M404.902 399.752C400.309 388.749 395.873 377.132 396.943 365.253C398.38 349.203 409.548 335.676 413.527 320.065C417.612 303.962 412.966 286.213 402.36 273.563C392.069 261.298 374.345 259.353 364.668 247.053C358.988 239.816 358.146 230.004 354.71 221.471C350.818 211.817 343.332 203.635 334.058 198.886C330.64 197.152 326.923 195.802 324.171 193.139C323.61 192.596 323.084 192.018 322.61 191.44C326.379 207.419 330.236 225.642 333.883 244.985C334.426 247.876 332.901 250.75 330.499 251.398C330.166 251.486 329.833 251.521 329.518 251.521C327.466 251.521 325.626 249.839 325.152 247.351C312.407 179.472 300.679 143.624 297.243 139.506C291.44 132.585 286.233 132.305 286.022 132.287C285.935 132.305 280.675 132.585 274.96 139.488C272.19 143.851 271.84 178.474 283.761 238.485C284.339 241.376 282.867 244.267 280.448 244.95C278.063 245.634 275.644 243.846 275.065 240.973C272.471 227.937 269.561 211.099 267.457 194.506C266.212 193.682 264.985 192.824 263.74 191.983C258.411 188.356 257.149 187.48 256.535 187.077C251.293 183.572 243.246 180.331 236.619 179.613C228.099 178.666 220.385 179.753 211.374 187.042C202.749 194.015 193.405 200.393 182.798 203.67C176.294 205.667 169.036 206 162.269 205.667C158.377 205.474 153.907 205.211 150.278 203.705C146.404 202.093 143.301 199.885 139.04 199.026C137.953 198.816 136.796 198.623 135.85 198.045C131.327 221.103 124.858 242.655 122.508 250.189C121.649 252.957 119.072 254.359 116.758 253.325C114.444 252.292 113.269 249.208 114.128 246.439C114.444 245.423 121.965 221.244 127.067 195.329C135.517 152.612 130.415 141.468 127.838 138.647C122.053 132.34 116.53 132.199 116.267 132.287C111.025 132.462 106.976 137.246 105.03 139.541C92.1092 154.75 86.3414 224.958 85.2194 250.732C85.0967 253.588 83.1157 255.813 80.749 255.813H80.5211C78.0492 255.656 76.1558 253.133 76.2785 250.172C76.4538 246.072 77.3128 228.55 79.5218 207.962C78.8381 208.698 78.1543 209.452 77.4706 210.188C72.6495 215.409 66.0928 217.214 61.1841 222.295C56.661 226.956 54.2768 232.79 52.9093 239.045C50.2446 251.275 51.8399 264.802 44.6696 275.718C35.4833 289.682 17.7066 290.576 10.2908 310.48C3.71662 328.16 10.3259 343.368 15.8833 360.101C22.7205 380.742 19.3019 395.267 8.88834 414.278C6.27618 419.061 3.66402 423.897 2.01608 429.101C-5.90805 454.192 10.6765 474.832 31.0478 486.834C35.4307 489.427 40.953 490.181 45.5287 493.089C62.6918 504.005 56.4331 530.252 77.2778 542.552C86.3414 547.896 96.8602 548.299 107.098 547.634C112.27 547.301 117.424 546.74 122.614 546.495C125.033 546.39 127.452 545.706 129.872 545.811C132.238 545.917 134.658 546.81 136.989 547.371C143.563 548.965 151.067 549.561 157.15 552.61C163.286 555.623 169.334 559.285 175.961 561.125C184.604 563.526 195.088 563.736 203.643 561.02C212.181 558.304 219.895 553.626 227.994 549.894C239.74 544.462 252.117 540.257 265.248 541.764C271.664 542.5 278.431 544.077 284.287 546.915C293.053 549.684 302.677 552.89 305.938 553.258C307.06 553.398 308.27 553.258 309.392 553.258C311.916 553.293 315.948 553.714 318.035 553.258C319.525 552.943 333.497 545.881 335.32 544.62C335.899 544.252 336.407 543.428 337.056 542.903C342.491 538.417 348.118 527.204 350.888 520.44C352.869 515.569 354.342 510.488 355.937 505.477C357.532 500.448 359.671 495.682 360.793 490.479C360.986 489.55 361.179 488.604 361.652 487.78C363.809 484.083 371.067 480.877 374.573 478.634C378.552 476.076 383.829 473.693 387.178 470.346C400.572 461.007 414.316 452.212 414.386 433.989C414.386 430.608 414.001 427.261 413.335 423.967C411.652 415.662 408.198 407.637 404.902 399.752ZM6.92484 446.149C6.80212 445.045 6.90731 443.836 6.92484 442.698L8.6429 443.591L6.92484 446.149Z" fill="url(#paint0_radial_131_522)"/>
<path d="M155.875 349.553C157.695 343.028 151.828 335.693 142.771 333.171C133.715 330.649 124.898 333.894 123.079 340.419C121.26 346.945 127.127 354.279 136.183 356.801C145.24 359.323 154.056 356.078 155.875 349.553Z" fill="#4B5975"/>
<path d="M258.468 355.096C267.524 352.574 273.391 345.24 271.572 338.714C269.753 332.189 260.937 328.944 251.88 331.466C242.824 333.988 236.957 341.322 238.776 347.848C240.595 354.373 249.412 357.618 258.468 355.096Z" fill="#4B5975"/>
<path d="M175.698 363.097C180.221 371.56 188.952 376.922 198.489 377.115C212.97 377.395 220.859 365.515 221.28 364.85" stroke="#4B5975" stroke-width="5" stroke-miterlimit="10" stroke-linecap="round"/>
<path d="M263.39 314.984C265.301 314.493 268.386 314.984 271.419 316.245C276.047 318.172 277.906 320.783 278.011 320.923" stroke="#4B5975" stroke-width="3" stroke-miterlimit="10" stroke-linecap="round"/>
<path d="M139.514 318.488C137.603 317.997 134.517 318.488 131.484 319.749C126.856 321.677 124.998 324.287 124.893 324.428" stroke="#4B5975" stroke-width="3" stroke-miterlimit="10" stroke-linecap="round"/>
<path d="M203.819 163.388C227.54 163.388 246.77 144.168 246.77 120.46C246.77 96.7519 227.54 77.5325 203.819 77.5325C180.097 77.5325 160.867 96.7519 160.867 120.46C160.867 144.168 180.097 163.388 203.819 163.388Z" fill="#B9D6FF"/>
<path d="M203.818 155.503C223.183 155.503 238.881 139.814 238.881 120.46C238.881 101.106 223.183 85.4172 203.818 85.4172C184.454 85.4172 168.756 101.106 168.756 120.46C168.756 139.814 184.454 155.503 203.818 155.503Z" fill="#739BFF"/>
<path d="M260.322 21.0258H148.192C143.331 21.0258 139.391 24.9638 139.391 29.8215V64.7944C139.391 69.6522 143.331 73.5902 148.192 73.5902H260.322C265.182 73.5902 269.122 69.6522 269.122 64.7944V29.8215C269.122 24.9638 265.182 21.0258 260.322 21.0258Z" fill="#B9D6FF"/>
<path d="M251.293 31.5386H155.467C153.366 31.5386 151.663 33.2409 151.663 35.3408V40.0015C151.663 42.1014 153.366 43.8037 155.467 43.8037H251.293C253.394 43.8037 255.097 42.1014 255.097 40.0015V35.3408C255.097 33.2409 253.394 31.5386 251.293 31.5386Z" fill="#B9EBFF"/>
<path d="M251.293 50.8123H155.467C153.366 50.8123 151.663 52.5145 151.663 54.6144V59.2751C151.663 61.375 153.366 63.0773 155.467 63.0773H251.293C253.394 63.0773 255.097 61.375 255.097 59.2751V54.6144C255.097 52.5145 253.394 50.8123 251.293 50.8123Z" fill="#B9EBFF"/>
</g>
<defs>
<radialGradient id="paint0_radial_131_522" cx="0" cy="0" r="1" gradientUnits="userSpaceOnUse" gradientTransform="translate(207.5 347.626) scale(211.532 211.414)">
<stop stop-color="#B2D4D8"/>
<stop offset="0.26" stop-color="#B2D4D8"/>
<stop offset="0.44" stop-color="#A7C9D3"/>
<stop offset="0.71" stop-color="#9ABAD1"/>
<stop offset="1" stop-color="#89A7CC"/>
</radialGradient>
<clipPath id="clip0_131_522">
<rect width="415" height="563" fill="white"/>
</clipPath>
</defs>
</svg>
