<svg width="289" height="316" viewBox="0 0 289 316" fill="none" xmlns="http://www.w3.org/2000/svg">
<g clip-path="url(#clip0_131_536)">
<path d="M189 201.27C189.85 222.14 190.7 243.02 191.55 263.89C205.44 266.17 219.32 268.44 233.21 270.72V209.23C218.47 206.57 203.74 203.92 189 201.26V201.27Z" fill="#DADCDB"/>
<path d="M216.94 163.36C219.89 163.84 219 168.79 225.11 166.87C227.73 166.05 227.96 162.87 228.59 162.49C229.62 161.9 230.88 162.32 231.98 162.22C234.07 172.16 216.84 173.43 214 166.29C212.85 163.39 214.39 162.93 216.94 163.35V163.36Z" fill="#B0CED2"/>
<path d="M18.69 241.92C26.97 253.88 38.81 260.96 42.8 275.84C45.16 284.64 45.39 295.19 51.64 302.36C59.79 311.72 73.57 315.73 85.24 312.11C91.38 310.2 97.09 307.09 103.18 305.01C106.8 303.77 110.54 302.91 114.34 302.43C116.95 302.1 119.24 302.89 119.79 303C123.1 303.69 125.41 304.83 126.04 305.13C162.84 322.49 181.67 313.68 181.67 313.68C186.11 311.88 190.3 308.53 194.15 302.92C198.35 296.8 197.32 292.26 200.53 283.52C202.08 279.32 204.82 273.43 210.01 266.91C205.78 266.29 201.49 265.6 197.13 264.84C195.41 264.54 193.7 264.23 192.01 263.91C191.68 260.91 191.34 257.91 191.01 254.91C203.15 254.84 212.37 251.79 215.01 247.91C216.7 245.43 217.01 242.91 217.01 242.91C217.01 242.91 217.35 240.12 216.01 236.91C214.19 232.57 204.56 225.04 190.01 217.91C189.68 212.24 189.34 206.58 189.01 200.91C198.8 200.21 209.35 199.06 220.53 197.3C230.32 195.76 239.5 193.91 248.01 191.91C248.57 185.86 248.91 177.25 247.72 167.06C246.33 155.14 242.77 138.11 232.64 120.93C224.83 107.67 209.98 98.84 205.4 83.63C203.15 76.16 204.91 68.09 202.38 60.66C201.62 58.42 197.59 50.93 195.35 51.13C181.35 55.83 166.79 70.51 152.49 72.43C134.3 74.88 118.96 68.68 103.3 69.08C87.06 69.49 65.72 77.28 49.08 79.06C38.11 92.47 27.32 101.48 17.98 116.28C7.98 132.13 3.51997 143.06 1.04997 162.23C-2.49003 189.7 2.78999 218.97 18.69 241.92Z" fill="url(#paint0_radial_131_536)"/>
<path d="M49.46 77.65C55.24 76.76 61.23 75.7 67.42 74.43C76.62 72.54 85.27 70.39 93.34 68.11C89.86 58.36 88.01 49.91 86.96 43.64C85.09 32.46 86.05 26.24 86.76 20.54C87.08 18 89.9 7.82997 92.6 10.71C90.37 17.56 87.45 29.68 89.39 44.56C90.64 54.16 93.51 61.86 96.04 67.24C100.28 66.01 106.46 63.84 113.24 59.87C120.46 55.65 121.06 53.66 128.23 49.56C136.49 44.83 143.81 42.82 149.01 41.43C154.09 40.07 160.91 38.67 169.1 38.16C167.6 33.33 164.67 26.54 158.75 20.31C152.36 13.58 145.48 10.65 140.27 8.48997C137.28 7.24997 131.06 4.63997 121.96 3.82997C112.81 3.01997 79.21 3.72997 63.06 20.12C59.11 24.12 56.52 28.67 56.52 28.67C53.62 33.75 52.41 38.48 51.5 43.48C49.06 57.01 49.21 70.79 49.45 77.66L49.46 77.65Z" fill="#F7BB23"/>
<path d="M185.24 52.3801C186.58 51.5501 187.79 50.8701 188.2 50.6401C197.54 45.2601 209.55 43.6501 209.43 42.4201C209.34 41.5101 202.65 41.4301 195.66 41.4301C182.67 41.4301 176.17 41.4301 172.65 41.7201C160.15 42.7701 147.72 45.3201 136.02 49.9001C126.63 53.5801 117.76 58.5701 109.9 64.8901C109.83 66.7301 129.63 68.9701 132.26 69.1101C142.59 69.6801 152.83 68.9801 162.47 65.0001C166.9 63.1701 171.12 60.8601 175.32 58.5601C178.75 56.6701 181.95 54.4301 185.25 52.3801H185.24Z" fill="#F7BB23"/>
<path d="M88.1201 3.81999L96.5701 2.01999C94.2901 -0.890008 87.9501 -0.960008 88.1201 3.81999Z" fill="#F7BB23"/>
<path d="M231 161.91C229.41 164.32 226.35 165.86 223 165.91C217.91 165.99 215.15 162.6 215 162.41" stroke="#4B5975" stroke-width="5" stroke-miterlimit="10" stroke-linecap="round"/>
<path d="M191.795 147.326C186.63 145.887 183.283 141.701 184.321 137.977C185.358 134.253 190.387 132.401 195.553 133.84C200.719 135.279 204.066 139.465 203.028 143.189C201.99 146.914 196.961 148.766 191.795 147.326Z" fill="#4B5975"/>
<path d="M188.98 124.45C187.89 124.17 186.13 124.45 184.4 125.17C181.76 126.27 180.7 127.76 180.64 127.84" stroke="#4B5975" stroke-width="3" stroke-miterlimit="10" stroke-linecap="round"/>
<path d="M231.194 136.467C230.156 132.743 233.503 128.557 238.669 127.118C243.835 125.678 248.864 127.53 249.901 131.254C250.939 134.979 247.593 139.164 242.427 140.604C237.261 142.043 232.232 140.191 231.194 136.467Z" fill="#4B5975"/>
<path d="M229.53 118.73C230.62 118.45 232.38 118.73 234.11 119.45C236.75 120.55 237.81 122.04 237.87 122.12" stroke="#4B5975" stroke-width="3" stroke-miterlimit="10" stroke-linecap="round"/>
<path d="M288.43 198.42V263.32C270.21 265.98 251.99 268.63 233.78 271.29V208.67C252 205.25 270.22 201.84 288.43 198.42Z" fill="#F1F1F1"/>
<path d="M289 198.99C275.8 196.33 262.6 193.68 249.4 191.02C229.27 194.44 209.14 197.85 189 201.27C204 204.15 219 207.03 234 209.91C252.33 206.27 270.67 202.63 289 198.99Z" fill="#C6C8C7"/>
</g>
<defs>
<radialGradient id="paint0_radial_131_536" cx="0" cy="0" r="1" gradientUnits="userSpaceOnUse" gradientTransform="translate(124.26 183.52) rotate(180) scale(128.39 128.39)">
<stop stop-color="#B2D4D8"/>
<stop offset="0.26" stop-color="#B2D4D8"/>
<stop offset="0.44" stop-color="#A7C9D3"/>
<stop offset="0.71" stop-color="#9ABAD1"/>
<stop offset="1" stop-color="#89A7CC"/>
</radialGradient>
<clipPath id="clip0_131_536">
<rect width="289" height="315.92" fill="white" transform="matrix(-1 0 0 1 289 0)"/>
</clipPath>
</defs>
</svg>
