<svg width="434" height="422" viewBox="0 0 434 422" fill="none" xmlns="http://www.w3.org/2000/svg">
<g clip-path="url(#clip0_151_540)">
<path d="M43.9719 345.626C66.6853 384.763 113.93 366.533 149.257 374.235C187.79 382.648 192.022 425.9 238.92 421.719C278.577 418.182 282.049 381.358 309.358 368.202C334.22 356.22 377.134 365.36 388.838 333.627C396.789 312.124 384.705 292.556 386.904 270.541C390.755 232.081 451.49 217.107 429.041 165.557C416.676 137.163 377.597 129.775 368.703 112.685C367.067 109.512 364.537 98.5873 363.744 94.5049C360.388 77.1344 365.348 62.8049 358.851 44.0295C347.048 9.98263 304.266 -2.5949 272.378 8.92486C265.452 11.4371 261.815 15.3706 256.294 18.4778C231.795 32.2619 218.951 43.5833 190.17 26.7416C170.482 15.2054 160.481 2.80964 134.71 0.380075C87.9935 -4.01627 45.0464 30.4769 46.2697 78.8533C46.5838 91.7118 51.6753 103.942 51.3116 117.644C51.1463 123.709 50.6669 130.238 48.0055 135.824C38.2192 156.401 10.497 167.16 2.59531 190.415C-10.7781 229.701 31.7391 240.626 37.3431 271.268C41.9882 296.704 28.6479 319.198 43.9719 345.626Z" fill="url(#paint0_radial_151_540)"/>
<path d="M332.666 251.352C332.765 251.319 332.848 251.303 332.947 251.286C330.897 256.757 329.525 262.376 327.756 267.979C326.698 271.318 325.624 274.441 323.624 276.673C323.161 274.855 322.731 273.598 322.351 273.218C313.127 263.798 295.67 275.532 287.934 273.83C277.718 271.582 286.413 246.741 289.355 240.279C304.597 206.794 341.725 212.016 332.666 251.336V251.352Z" fill="#363739"/>
<path d="M268.428 261.167C271.007 264.828 270.698 269.221 270.428 272.141L270.339 272.891C269.797 276.68 267.789 281.017 264.639 285.636C261.321 290.501 256.972 295.336 252.511 299.707C243.592 308.444 234.585 314.979 233.479 315.768C231.621 317.093 231.188 319.674 232.514 321.532C233.839 323.389 236.421 323.82 238.279 322.495C239.542 321.594 248.939 314.776 258.296 305.609C262.974 301.026 267.732 295.768 271.468 290.292C275.161 284.878 278.101 278.894 278.658 272.907L278.66 272.904C278.918 270.112 279.7 262.784 275.157 256.369L275.153 256.365C275.152 256.363 275.15 256.361 275.148 256.359C275.145 256.355 275.142 256.349 275.139 256.344C275.131 256.334 275.122 256.323 275.113 256.31C275.094 256.285 275.072 256.253 275.045 256.217C274.991 256.145 274.921 256.053 274.834 255.944C274.659 255.725 274.418 255.435 274.107 255.093C273.487 254.412 272.584 253.518 271.389 252.571C268.996 250.674 265.397 248.545 260.537 247.538C252.747 245.927 244.364 249.555 236.769 255.612C229.035 261.78 221.367 271.034 214.714 282.308C213.554 284.273 214.208 286.807 216.173 287.966C218.139 289.125 220.672 288.472 221.832 286.507C228.122 275.848 235.176 267.451 241.922 262.071C248.808 256.579 254.667 254.76 258.861 255.628L258.86 255.629C262.216 256.325 264.66 257.782 266.255 259.046C267.053 259.679 267.632 260.258 267.994 260.655C268.174 260.854 268.299 261.006 268.368 261.093L268.428 261.167Z" fill="#4B5975"/>
<path d="M106.856 139.051C104.603 138.685 102.48 140.215 102.114 142.468C102.002 143.161 101.205 148.205 101.225 154C101.235 156.895 101.447 160.111 102.108 163.129C102.754 166.083 103.914 169.237 106.094 171.652L106.092 171.654C106.964 172.626 109.562 175.607 113.91 176.37L113.92 176.372L114.625 172.301C113.961 176.143 113.924 176.359 113.923 176.372L113.926 176.373C113.928 176.374 113.931 176.375 113.933 176.375C113.937 176.376 113.942 176.376 113.947 176.377C113.957 176.378 113.968 176.38 113.98 176.381C114.003 176.385 114.029 176.39 114.059 176.394C114.118 176.403 114.19 176.412 114.273 176.422C114.44 176.442 114.656 176.463 114.913 176.478C115.425 176.508 116.117 176.515 116.934 176.44C118.563 176.289 120.759 175.805 123.01 174.459L123.012 174.458C126.989 172.077 128.682 167.535 129.159 163.069C129.652 158.463 128.985 153.01 127.335 147.373C126.694 145.183 124.398 143.928 122.208 144.569C120.018 145.21 118.763 147.504 119.404 149.693C120.845 154.617 121.287 158.95 120.941 162.191C120.58 165.566 119.489 166.934 118.771 167.365H118.769C117.813 167.937 116.876 168.147 116.175 168.211C115.827 168.243 115.555 168.238 115.394 168.229C115.346 168.226 115.308 168.22 115.284 168.218C114.007 167.973 113.081 167.069 112.246 166.137L112.233 166.123C111.421 165.226 110.686 163.664 110.183 161.363C109.692 159.12 109.499 156.537 109.49 153.972C109.473 148.848 110.187 144.323 110.273 143.791C110.638 141.538 109.108 139.416 106.856 139.051Z" fill="#4B5975"/>
<path d="M340.345 260.653C337.741 260.343 330.889 259.436 324.801 263.381L324.213 263.779L324.212 263.781L326.599 267.153C324.211 263.78 324.21 263.781 324.208 263.783L324.205 263.784C324.203 263.786 324.201 263.787 324.199 263.789C324.194 263.792 324.189 263.797 324.184 263.8C324.174 263.808 324.162 263.817 324.149 263.826C324.123 263.845 324.092 263.867 324.057 263.894C323.985 263.948 323.894 264.018 323.787 264.104C323.573 264.275 323.292 264.512 322.962 264.816C322.304 265.422 321.443 266.303 320.541 267.474C318.731 269.82 316.736 273.345 315.87 278.117H315.872C314.485 285.745 318.187 294.033 324.192 301.602C330.322 309.328 339.437 317.074 350.485 323.874C352.428 325.071 354.974 324.465 356.171 322.522C357.367 320.579 356.761 318.034 354.818 316.837C344.359 310.399 336.051 303.252 330.667 296.467C325.16 289.525 323.259 283.682 324.003 279.594V279.592C324.592 276.348 325.929 274.021 327.087 272.521C327.667 271.768 328.201 271.227 328.564 270.892C328.745 270.726 328.881 270.612 328.958 270.55L329.021 270.502C329.018 270.504 329.013 270.508 329.008 270.511L328.993 270.521L328.99 270.523C332.349 268.153 336.504 268.518 339.369 268.859H339.372C343.187 269.31 347.692 271.439 352.551 274.871C357.343 278.255 362.129 282.651 366.465 287.146C375.136 296.131 381.675 305.153 382.465 306.261C383.79 308.118 386.372 308.549 388.23 307.224C390.087 305.899 390.519 303.318 389.194 301.46C388.296 300.202 381.487 290.813 372.412 281.409C367.876 276.708 362.69 271.914 357.318 268.121C352.016 264.377 346.166 261.344 340.345 260.655V260.653Z" fill="#4B5975"/>
<path d="M350.819 206.037C349.104 199.882 354.636 192.964 363.175 190.585C371.715 188.206 380.028 191.267 381.744 197.422C383.459 203.577 377.927 210.495 369.387 212.874C360.848 215.253 352.534 212.192 350.819 206.037Z" fill="#4B5975"/>
<path d="M254.081 211.241C245.542 208.862 240.01 201.944 241.725 195.789C243.44 189.634 251.754 186.573 260.293 188.952C268.833 191.331 274.365 198.249 272.65 204.404C270.934 210.559 262.621 213.62 254.081 211.241Z" fill="#4B5975"/>
<path d="M250.05 171.007C247.477 170.346 243.959 171.041 240.91 172.31H240.908C238.464 173.328 236.713 174.544 235.536 175.56C234.948 176.067 234.505 176.523 234.191 176.877C234.034 177.054 233.909 177.205 233.816 177.323C233.736 177.424 233.671 177.512 233.663 177.523C232.841 178.618 233.063 180.173 234.159 180.995C235.254 181.816 236.809 181.593 237.631 180.497C237.647 180.475 237.99 179.991 238.776 179.313C239.59 178.61 240.897 177.686 242.816 176.887C245.486 175.776 247.787 175.544 248.817 175.809C250.143 176.149 251.495 175.351 251.836 174.025C252.176 172.699 251.376 171.348 250.05 171.007Z" fill="#4B5975"/>
<path d="M374.764 175.615C371.715 174.346 368.197 173.652 365.624 174.313C364.297 174.653 363.498 176.005 363.838 177.331C364.179 178.657 365.531 179.455 366.857 179.114C367.887 178.85 370.189 179.08 372.859 180.191L372.858 180.192C374.777 180.992 376.084 181.916 376.898 182.618C377.685 183.298 378.029 183.783 378.043 183.803C378.865 184.898 380.42 185.122 381.515 184.3C382.611 183.479 382.833 181.924 382.011 180.828C382.003 180.818 381.938 180.73 381.858 180.628C381.765 180.51 381.64 180.36 381.483 180.183C381.169 179.829 380.726 179.373 380.138 178.866C378.96 177.849 377.21 176.633 374.766 175.615H374.764Z" fill="#4B5975"/>
<path d="M298.761 226.528C307.605 230.544 314.102 240.642 314.581 252.724C314.829 258.955 313.408 264.773 310.845 269.615C302.415 270.243 293.058 274.987 287.95 273.863C277.734 271.615 286.429 246.774 289.372 240.312C291.984 234.593 295.224 230.015 298.778 226.544L298.761 226.528Z" fill="#FFC4B9"/>
</g>
<defs>
<radialGradient id="paint0_radial_151_540" cx="0" cy="0" r="1" gradientUnits="userSpaceOnUse" gradientTransform="translate(217 211.008) rotate(180) scale(214.041 214)">
<stop stop-color="#B2D4D8"/>
<stop offset="0.26" stop-color="#B2D4D8"/>
<stop offset="0.44" stop-color="#A7C9D3"/>
<stop offset="0.71" stop-color="#9ABAD1"/>
<stop offset="1" stop-color="#89A7CC"/>
</radialGradient>
<clipPath id="clip0_151_540">
<rect width="434" height="422" fill="white" transform="matrix(-1 0 0 1 434 0)"/>
</clipPath>
</defs>
</svg>
