<svg width="514" height="500" viewBox="0 0 514 500" fill="none" xmlns="http://www.w3.org/2000/svg">
<path d="M461.93 409.506C435.03 455.877 379.076 434.278 337.238 443.403C291.602 453.371 286.59 504.618 231.047 499.664C184.079 495.473 179.968 451.843 147.625 436.255C118.18 422.058 67.355 432.887 53.4938 395.289C44.0768 369.812 58.3883 346.626 55.7844 320.543C51.2228 274.974 -20.7069 257.232 5.88009 196.155C20.5244 162.512 66.8069 153.758 77.3398 133.51C79.2781 129.75 82.2735 116.806 83.2132 111.969C87.1876 91.3882 81.3142 74.4102 89.0083 52.1645C102.987 11.8246 153.655 -3.0777 191.421 10.5713C199.624 13.5478 203.931 18.2085 210.47 21.89C239.485 38.2218 254.697 51.6358 288.782 31.6812C312.1 18.0126 323.944 3.32577 354.467 0.447144C409.794 -4.7618 460.658 36.1069 459.209 93.4248C458.837 108.66 452.807 123.151 453.238 139.385C453.433 146.572 454.001 154.307 457.153 160.926C468.743 185.306 501.576 198.054 510.934 225.607C526.773 272.154 476.418 285.098 469.781 321.404C464.28 351.542 480.079 378.193 461.93 409.506Z" fill="url(#paint0_radial_85_4622)"/>
<path d="M190.773 211.829C193.749 204.87 188.336 195.882 178.682 191.754C169.029 187.626 158.791 189.921 155.815 196.88C152.839 203.84 158.252 212.828 167.906 216.956C177.559 221.084 187.797 218.788 190.773 211.829Z" fill="#4B5975"/>
<path d="M307.408 215.239C317.216 211.494 322.979 202.726 320.279 195.655C317.579 188.584 307.439 185.888 297.631 189.633C287.823 193.378 282.06 202.146 284.76 209.217C287.46 216.288 297.6 218.984 307.408 215.239Z" fill="#4B5975"/>
<path d="M210.645 229.59C213.081 228.29 216.11 229.21 217.411 231.645C221.722 239.713 230.037 244.811 239.096 244.996C245.884 245.128 251.17 242.428 254.922 239.474C256.799 237.997 258.251 236.485 259.252 235.31C259.75 234.725 260.13 234.231 260.389 233.878C260.648 233.524 260.776 233.325 260.774 233.33C262.248 230.996 265.335 230.299 267.67 231.773C270.004 233.248 270.701 236.334 269.227 238.668C268.792 239.356 266.066 243.426 261.108 247.33C256.11 251.263 248.634 255.182 238.903 254.993L238.899 254.992C226.201 254.735 214.598 247.598 208.591 236.354C207.29 233.919 208.21 230.891 210.645 229.59Z" fill="#4B5975"/>
<path d="M300.287 162.308C303.444 161.508 307.76 162.349 311.501 163.885H311.503C314.501 165.118 316.649 166.59 318.094 167.821C318.815 168.435 319.359 168.987 319.744 169.415C319.936 169.629 320.089 169.812 320.203 169.954C320.302 170.078 320.381 170.183 320.391 170.197C321.399 171.523 321.127 173.405 319.783 174.4C318.439 175.395 316.531 175.124 315.523 173.798C315.504 173.771 315.083 173.185 314.119 172.364C313.12 171.514 311.516 170.395 309.162 169.427C305.886 168.082 303.064 167.801 301.8 168.121C300.173 168.534 298.515 167.567 298.096 165.962C297.678 164.357 298.66 162.72 300.287 162.308Z" fill="#4B5975"/>
<path d="M163.673 167.885C167.089 166.349 171.029 165.508 173.912 166.308C175.398 166.72 176.294 168.357 175.912 169.962C175.53 171.567 174.016 172.534 172.53 172.121C171.377 171.801 168.799 172.08 165.807 173.425L165.809 173.427C163.659 174.395 162.195 175.514 161.283 176.364C160.401 177.186 160.017 177.773 160.001 177.798C159.08 179.124 157.338 179.395 156.111 178.4C154.884 177.405 154.635 175.523 155.556 174.197C155.564 174.184 155.637 174.078 155.728 173.954C155.832 173.812 155.972 173.629 156.147 173.415C156.498 172.987 156.995 172.435 157.653 171.821C158.973 170.59 160.934 169.118 163.672 167.885H163.673Z" fill="#4B5975"/>
<path d="M75 258.1C75 255.283 77.2881 253 80.1106 253C82.9331 253 85.2211 255.283 85.2211 258.1C85.2211 260.032 85.4059 275.999 88.2515 293.696C89.6745 302.546 91.7386 311.674 94.7056 319.635C97.7046 327.681 101.445 334.036 105.921 337.865L107.207 338.947C110.41 341.577 115.044 344.79 120.973 344.798C121.001 344.797 121.056 344.797 121.135 344.792C121.311 344.782 121.609 344.759 122.009 344.71C122.813 344.612 124.014 344.408 125.465 343.985C128.363 343.141 132.212 341.441 135.912 338.007C140.667 333.585 143.392 324.942 142.665 312.278C141.951 299.832 137.932 284.562 130.641 268.348C129.486 265.778 130.638 262.759 133.213 261.606C135.788 260.453 138.813 261.603 139.968 264.172C147.62 281.19 152.065 297.693 152.868 311.696C153.659 325.478 150.958 337.959 142.877 345.471L142.875 345.473C137.785 350.199 132.432 352.579 128.33 353.775C126.28 354.372 124.531 354.678 123.259 354.835C122.622 354.913 122.099 354.954 121.716 354.976C121.525 354.987 121.367 354.993 121.247 354.996C121.187 354.998 121.135 354.999 121.093 355H120.999C120.997 354.996 120.995 354.859 120.995 349.9V355C110.04 355 102.335 348.231 99.2732 345.615L99.2712 345.613C92.8829 340.149 88.3793 331.921 85.1253 323.191C81.8393 314.374 79.6405 304.531 78.1582 295.312C75.1931 276.871 75 260.309 75 258.1Z" fill="#4B5975"/>
<path d="M392.144 309.782C390.33 311.938 390.611 315.158 392.77 316.975C394.93 318.792 398.151 318.518 399.964 316.363C401.387 314.673 411.901 301.875 421.506 285.857C426.308 277.848 430.963 268.901 434.126 260.04C437.257 251.265 439.111 242.071 437.741 233.777L437.741 233.775C437.083 229.802 435.546 219.662 427.164 212.608L423.88 216.51C427.047 212.747 427.158 212.611 427.161 212.605L427.089 212.545C427.057 212.518 427.016 212.486 426.969 212.449C426.874 212.374 426.749 212.276 426.596 212.161C426.288 211.931 425.863 211.627 425.325 211.277C424.251 210.577 422.715 209.684 420.762 208.822C416.853 207.095 411.226 205.472 404.29 205.81L404.287 205.81C393.266 206.355 383.162 214.164 374.893 225.218C366.492 236.45 359.268 251.94 354.166 269.887C353.395 272.597 354.97 275.424 357.682 276.2C360.395 276.976 363.218 275.406 363.989 272.696C368.85 255.596 375.609 241.326 383.076 231.344C390.675 221.184 398.327 216.326 404.812 216.006L404.811 216.004C409.852 215.759 413.889 216.937 416.65 218.156C418.033 218.767 419.084 219.386 419.763 219.828C420.101 220.048 420.343 220.222 420.484 220.328C420.546 220.375 420.588 220.409 420.61 220.427C425.791 224.797 426.979 231.284 427.665 235.424C428.624 241.235 427.392 248.505 424.506 256.592C421.65 264.594 417.354 272.908 412.745 280.595C403.527 295.969 393.388 308.304 392.144 309.782Z" fill="#4B5975"/>
<defs>
<radialGradient id="paint0_radial_85_4622" cx="0" cy="0" r="1" gradientUnits="userSpaceOnUse" gradientTransform="translate(257.007 250.006) scale(253.496 253.554)">
<stop stop-color="#B2D4D8"/>
<stop offset="0.26" stop-color="#B2D4D8"/>
<stop offset="0.44" stop-color="#A7C9D3"/>
<stop offset="0.71" stop-color="#9ABAD1"/>
<stop offset="1" stop-color="#89A7CC"/>
</radialGradient>
</defs>
</svg>
